<?xml version="1.0" encoding="UTF-8"?>
<svg width="13px" height="14px" viewBox="0 0 13 14" version="1.1" xmlns="http://www.w3.org/2000/svg" xmlns:xlink="http://www.w3.org/1999/xlink">
    <!-- Generator: Sketch 40.3 (33839) - http://www.bohemiancoding.com/sketch -->
    <title>svg - Filter</title>
    <desc>Created with Sketch.</desc>
    <defs></defs>
    <g id="Page-1" stroke="none" stroke-width="1" fill="none" fill-rule="evenodd">
        <g id="Список-заказов" transform="translate(-1161.000000, -215.000000)" fill="#AAAAAA">
            <g id="Group-15" transform="translate(290.000000, 185.000000)">
                <g id="Group-8" transform="translate(636.000000, 20.000000)">
                    <path d="M243.149787,17.2607402 L243.126694,21.6625015 L239.850857,24 L239.850857,17.2640724 C239.850857,17.2640724 236.863676,13.5062478 235.186995,11.396168 C234.982461,11.13876 234.942049,10.7847197 235.083903,10.487326 C235.224932,10.1890991 235.522661,10 235.85008,10 L247.149739,10 C247.477158,10 247.774886,10.1890991 247.91674,10.487326 C248.05777,10.7855528 248.017358,11.13876 247.812824,11.396168 L243.149787,17.2607402 L243.149787,17.2607402 Z M240.675589,17.4973224 L240.675589,22.4105677 L242.325054,21.2618113 L242.325054,17.4973224 L240.675589,17.4973224 L240.675589,17.4973224 Z M240.427345,16.6642866 L242.576598,16.6642866 L247.273449,10.8330358 L235.727194,10.8330358 L240.427345,16.6642866 L240.427345,16.6642866 Z" id="svg---Filter"></path>
                </g>
            </g>
        </g>
    </g>
</svg>